<svg id="visual" viewBox="0 0 960 540" width="960" height="540" xmlns="http://www.w3.org/2000/svg" xmlns:xlink="http://www.w3.org/1999/xlink" version="1.1">
  <rect x="0" y="0" width="960" height="540" fill="#60a3d9"></rect>
  <path d="M450 0L495 0L495 77L441 77L441 154L369 154L369 231L545 231L545 309L375 309L375 386L432 386L432 463L382 463L382 540L0 540L0 463L0 463L0 386L0 386L0 309L0 309L0 231L0 231L0 154L0 154L0 77L0 77L0 0L0 0Z" fill="#bfd7ed"></path>
  <path d="M377 0L323 0L323 77L381 77L381 154L241 154L241 231L406 231L406 309L219 309L219 386L375 386L375 463L311 463L311 540L0 540L0 463L0 463L0 386L0 386L0 309L0 309L0 231L0 231L0 154L0 154L0 77L0 77L0 0L0 0Z" fill="#74a5d2"></path>
  <path d="M121 0L102 0L102 77L146 77L146 154L158 154L158 231L108 231L108 309L183 309L183 386L147 386L147 463L217 463L217 540L0 540L0 463L0 463L0 386L0 386L0 309L0 309L0 231L0 231L0 154L0 154L0 77L0 77L0 0L0 0Z" fill="#0074b7"></path>  
</svg>
